<?xml version="1.0" standalone="no"?>
<!DOCTYPE svg PUBLIC "-//W3C//DTD SVG 1.1//EN" "http://www.w3.org/Graphics/SVG/1.1/DTD/svg11.dtd" >
<svg xmlns="http://www.w3.org/2000/svg">
<metadata></metadata>
<defs>
<font id="alright_sansbold_italic" horiz-adv-x="1251" >
<font-face units-per-em="2048" ascent="1556" descent="-492" />
<missing-glyph horiz-adv-x="483" />
<glyph unicode="&#xfb01;" horiz-adv-x="1327" d="M78 874l37 207h168l10 58q38 211 179 317.5t372 106.5q251 0 471 -138l-129 -182q-175 96 -334 96q-113 0 -177.5 -53.5t-84.5 -175.5l-6 -31h272l-39 -205h-268l-154 -874h-301l154 874h-170zM799 0l192 1083h299l-192 -1083h-299z" />
<glyph unicode="&#xfb02;" horiz-adv-x="1349" d="M78 874l37 207h168l10 52q77 432 563 432q215 0 339 -100.5t124 -270.5q0 -81 -14 -170l-183 -1024h-301l189 1063q14 91 14 119q0 157 -190 157q-103 0 -163.5 -54.5t-80.5 -174.5l-6 -29h272l-39 -207h-268l-154 -874h-301l154 874h-170z" />
<glyph unicode="&#xfb03;" horiz-adv-x="2023" d="M78 874l37 207h168l10 56q39 217 168 315t346 98q187 0 358 -92q134 105 373 105q255 0 473 -138l-131 -182q-172 96 -332 96q-112 0 -177.5 -54.5t-86.5 -174.5l-4 -31h270l-37 -205h-270l-151 -874h-301l151 874h-393l-154 -874h-301l154 874h-170zM584 1079h395l10 58 q15 85 45 153q-106 45 -209 45t-158.5 -51.5t-78.5 -175.5zM1495 0l191 1083h299l-191 -1083h-299z" />
<glyph unicode="&#xfb04;" horiz-adv-x="2045" d="M78 874l37 207h168l10 56q39 217 168 315t346 98q189 0 356 -92q144 107 391 107q214 0 337.5 -100.5t123.5 -270.5q0 -81 -14 -170l-182 -1024h-301l188 1063q14 91 14 119q0 157 -188 157q-209 0 -248 -227l-4 -31h270l-37 -207h-270l-151 -874h-301l151 874h-393 l-154 -874h-301l154 874h-170zM584 1079h395l8 54q16 93 47 157q-106 45 -209 45t-158.5 -51.5t-78.5 -175.5z" />
<glyph horiz-adv-x="2048" />
<glyph horiz-adv-x="2048" />
<glyph unicode="&#xd;" horiz-adv-x="2048" />
<glyph unicode=" "  horiz-adv-x="483" />
<glyph unicode="&#x09;" horiz-adv-x="483" />
<glyph unicode="&#xa0;" horiz-adv-x="483" />
<glyph unicode="!" horiz-adv-x="573" d="M27 0l45 268h307l-47 -268h-305zM180 444l53 713l52 277h303l-49 -277l-205 -713h-154z" />
<glyph unicode="&#x22;" horiz-adv-x="915" d="M158 989l80 445h305l-195 -480zM616 989l80 445h305l-194 -480z" />
<glyph unicode="#" horiz-adv-x="1361" d="M-4 252l37 205h241l80 239h-217l37 209h252l84 250h246l-86 -250h231l86 250h244l-84 -250h213l-37 -209h-248l-80 -239h226l-37 -205h-258l-84 -252h-246l84 252h-231l-84 -252h-244l84 252h-209zM518 457h232l81 239h-231z" />
<glyph unicode="$" horiz-adv-x="1144" d="M2 131l156 186q135 -92 309 -110l45 260q-48 13 -77 21.5t-74.5 25.5t-73.5 33t-61.5 42t-52 55t-31.5 69.5t-13 87.5q0 169 129.5 269.5t359.5 107.5l31 176h144l-31 -183q173 -22 323 -108l-145 -195q-122 63 -238 80l-45 -254q45 -12 75.5 -21.5t72.5 -26t70.5 -33.5 t60 -42.5t50 -55t30.5 -69.5t12 -86q0 -171 -119.5 -272t-359.5 -111l-43 -249h-141l43 254q-119 12 -225.5 52.5t-180.5 96.5zM420 827q0 -38 34 -61.5t103 -44.5l41 231q-81 -4 -129.5 -40t-48.5 -85zM571 207q81 7 125.5 41t44.5 86q0 37 -32.5 61t-96.5 45z" />
<glyph unicode="%" horiz-adv-x="1675" d="M90 823q0 151 111.5 252t277.5 101q128 0 208.5 -76t80.5 -199q0 -152 -112.5 -253t-278.5 -101q-129 0 -208 76t-79 200zM233 0l996 1155h211l-994 -1155h-213zM285 836q0 -63 29.5 -98.5t86.5 -35.5q71 0 121.5 56t50.5 129q0 63 -29 97t-87 34q-72 0 -122 -54.5 t-50 -127.5zM903 254q0 152 111.5 253t277.5 101q128 0 208.5 -76t80.5 -198q0 -152 -112 -253t-279 -101q-129 0 -208 75.5t-79 198.5zM1098 268q0 -63 29.5 -98t86.5 -35q72 0 122 55t50 129q0 132 -116 132q-71 0 -121.5 -55t-50.5 -128z" />
<glyph unicode="&#x26;" horiz-adv-x="1505" d="M41 371q0 155 96.5 274t255.5 189q-67 121 -67 241q0 164 125.5 273.5t310.5 109.5q245 0 416 -194l-197 -156q-109 113 -219 113q-72 0 -115 -43.5t-43 -108.5q0 -93 82 -192q146 -180 338 -363q68 117 92 264h273q-41 -247 -175 -438q139 -120 207 -174l-186 -184 q-68 55 -201 170q-225 -177 -520 -177q-220 0 -346.5 111.5t-126.5 284.5zM317 408q0 -89 58.5 -140t175.5 -51q164 0 301 100q-183 174 -334 347q-90 -45 -145.5 -110t-55.5 -146z" />
<glyph unicode="'" horiz-adv-x="466" d="M158 989l80 445h305l-195 -480z" />
<glyph unicode="(" horiz-adv-x="825" d="M104 377q0 336 135 645.5t384 523.5h340q-259 -216 -413.5 -533.5t-154.5 -664.5q0 -403 232 -758h-299q-98 150 -161 353t-63 434z" />
<glyph unicode=")" horiz-adv-x="825" d="M-139 -410q260 219 415.5 536.5t155.5 664.5q0 401 -233 755h301q97 -152 160 -353.5t63 -430.5q0 -337 -136.5 -648t-385.5 -524h-340z" />
<glyph unicode="*" horiz-adv-x="849" d="M174 1034l4 205l242 -35l4 4l-96 222l180 49l47 -234l4 -2l184 148l113 -160l-211 -98v-9l203 -125l-123 -149l-170 170l-6 -2l-72 -240l-170 64l111 221l-4 2z" />
<glyph unicode="+" horiz-adv-x="1234" d="M51 428l45 248h406l76 426h270l-74 -426h406l-45 -248h-406l-76 -428h-272l76 428h-406z" />
<glyph unicode="," horiz-adv-x="501" d="M-57 -207q161 57 188 207h-139l55 311h311l-39 -213q-31 -183 -104.5 -277t-228.5 -145z" />
<glyph unicode="-" horiz-adv-x="774" d="M47 426l47 254h625l-43 -254h-629z" />
<glyph unicode="." horiz-adv-x="499" d="M-8 0l55 311h311l-55 -311h-311z" />
<glyph unicode="/" horiz-adv-x="1116" d="M-203 -410q126 201 359.5 573.5t505.5 807.5t360 575h293q-159 -251 -636 -1011.5t-593 -944.5h-289z" />
<glyph unicode="0" horiz-adv-x="1361" d="M72 492q0 151 56 281t152 218.5t224 138.5t270 50q222 0 367 -139.5t145 -378.5q0 -151 -56 -280.5t-152 -218t-224 -138.5t-270 -50q-145 0 -260 60.5t-183.5 179t-68.5 277.5zM389 502q0 -131 59 -205t170 -74q93 0 174.5 60t129 159t47.5 211q0 131 -58.5 205 t-167.5 74q-93 0 -175 -60t-130.5 -159.5t-48.5 -210.5z" />
<glyph unicode="1" horiz-adv-x="882" d="M92 1006l465 161h234l-209 -1167h-312l152 862l-236 -86z" />
<glyph unicode="2" horiz-adv-x="1236" d="M25 0l6 78q9 96 44 175.5t86.5 133.5t116 98t133 74t137 54.5t129 45.5t107 42.5t74 50t27.5 63.5q0 61 -50 96t-151 35q-194 0 -403 -149l-131 204q269 177 563 177q220 0 347.5 -96t127.5 -257q0 -83 -40.5 -149t-107 -109t-147 -77t-165 -60.5t-156.5 -52.5 t-125.5 -61t-69.5 -78h698l-43 -238h-1007z" />
<glyph unicode="3" horiz-adv-x="1226" d="M-53 -168l139 201q182 -105 356 -105q151 0 245.5 69t94.5 181q0 87 -62 125.5t-181 38.5h-209l37 223h194q133 0 206 56t73 153q0 79 -55 122.5t-158 43.5q-160 0 -365 -131l-117 209q247 160 535 160q215 0 346 -105.5t131 -271.5q0 -240 -260 -344q197 -83 197 -297 q0 -147 -91.5 -255.5t-239.5 -161t-329 -52.5q-133 0 -260 36.5t-227 104.5z" />
<glyph unicode="4" horiz-adv-x="1343" d="M8 225l889 930h315l-161 -926h176l-39 -229h-178l-49 -283h-297l51 283h-643zM309 229h447l102 590z" />
<glyph unicode="5" horiz-adv-x="1206" d="M-59 -166l141 207q163 -100 344 -100q141 0 236.5 81.5t95.5 202.5q0 191 -205 191q-108 0 -266 -62l-156 107l145 694h863l-37 -227h-590l-70 -336q118 49 238 49q167 0 280 -107.5t113 -285.5q0 -127 -52.5 -233t-141 -175.5t-205.5 -108t-246 -38.5q-262 0 -487 141z " />
<glyph unicode="6" horiz-adv-x="1282" d="M86 567q0 198 60.5 366t164.5 282.5t245.5 178.5t301.5 64q231 0 402 -110l-140 -195q-129 72 -264 72q-154 0 -277 -119t-151 -299q75 56 171.5 90.5t191.5 34.5q186 0 294.5 -108.5t108.5 -291.5q0 -115 -43.5 -216.5t-121 -177t-192.5 -119.5t-251 -44 q-163 0 -277 77.5t-168.5 209t-54.5 305.5zM395 502q0 -127 55 -210t164 -83q87 0 151.5 46t95 114.5t30.5 148.5q0 94 -49 148.5t-140 54.5q-156 0 -301 -133q-6 -30 -6 -86z" />
<glyph unicode="7" horiz-adv-x="1157" d="M84 -281l741 1190h-690l43 246h1008l-39 -219l-721 -1217h-342z" />
<glyph unicode="8" horiz-adv-x="1359" d="M47 342q0 151 104.5 257t274.5 159q-203 97 -203 284q0 190 165 303t429 113q211 0 348.5 -97t137.5 -257q0 -132 -84.5 -227.5t-225.5 -143.5q248 -98 248 -319q0 -203 -182 -321t-473 -118q-247 0 -393 98.5t-146 268.5zM367 371q0 -80 64 -127t183 -47q134 0 224 61.5 t90 159.5q0 84 -64 138.5t-176 72.5q-134 -18 -227.5 -90.5t-93.5 -167.5zM530 1030q0 -69 51.5 -116t143.5 -60q119 13 193.5 76.5t74.5 150.5q0 71 -52 112.5t-150 41.5q-109 0 -185 -59t-76 -146z" />
<glyph unicode="9" horiz-adv-x="1284" d="M4 -180l148 188q117 -80 266 -80q101 0 192 53t154.5 148.5t81.5 214.5q-74 -56 -170.5 -89.5t-192.5 -33.5q-186 0 -294.5 107t-108.5 290q0 115 42 217t117.5 178t187.5 120.5t245 44.5q126 0 225 -44t162.5 -124t96 -188t32.5 -238q0 -198 -59 -366t-161.5 -283 t-243.5 -179.5t-302 -64.5q-111 0 -221.5 34t-196.5 95zM383 633q0 -94 48.5 -147.5t139.5 -53.5q158 0 301 131q5 29 5 86q0 127 -55 210t-163 83q-87 0 -151.5 -46t-94.5 -114.5t-30 -148.5z" />
<glyph unicode=":" horiz-adv-x="499" d="M-8 0l55 311h311l-55 -311h-311zM131 793l55 311h312l-56 -311h-311z" />
<glyph unicode=";" horiz-adv-x="499" d="M-57 -207q161 57 188 207h-139l55 311h311l-39 -213q-31 -183 -104.5 -277t-228.5 -145zM131 793l55 311h312l-56 -311h-311z" />
<glyph unicode="&#x3c;" horiz-adv-x="1206" d="M49 418l47 270l1106 414l-55 -311l-719 -248l633 -254l-53 -289z" />
<glyph unicode="=" horiz-adv-x="1234" d="M6 174l45 248h1084l-45 -248h-1084zM96 680l45 248h1084l-45 -248h-1084z" />
<glyph unicode="&#x3e;" horiz-adv-x="1206" d="M0 0l57 309l723 254l-635 248l50 291l960 -418l-47 -270z" />
<glyph unicode="?" horiz-adv-x="1126" d="M156 1245q233 213 524 213q89 0 170 -22.5t147.5 -66t106 -115.5t39.5 -162q0 -74 -28 -136t-74 -106t-102 -81.5t-114 -70t-107.5 -63.5t-85 -70t-44.5 -82l-8 -39h-226q-4 37 6 82q12 66 44 122t74 94.5t90.5 72t94 62t83 56.5t60.5 62.5t23 73.5q0 68 -51 106.5 t-127 38.5q-161 0 -332 -145zM238 0l45 268h305l-45 -268h-305z" />
<glyph unicode="@" horiz-adv-x="1677" d="M127 582q0 151 58.5 288.5t157.5 237t236.5 158.5t288.5 59q196 0 356.5 -88t252.5 -242.5t92 -343.5q0 -116 -38.5 -211t-100 -152t-133 -87.5t-142.5 -30.5q-93 0 -150 37.5t-81 99.5q-93 -108 -222 -108q-103 0 -173 75.5t-70 204.5q0 67 16 135.5t49 132.5t78.5 114 t110.5 80t139 30q117 0 184 -97l37 76h178l-137 -485q-23 -85 -1 -126.5t85 -41.5q43 0 86.5 23.5t80.5 66.5t60 112t23 152q0 155 -75 281.5t-207.5 198t-295.5 71.5q-126 0 -240.5 -49t-197 -132t-131.5 -198t-49 -241q0 -167 82.5 -309.5t225 -226t310.5 -83.5 q192 0 349 107l69 -101q-190 -129 -420 -129q-202 0 -372.5 99.5t-269.5 270t-99 372.5zM668 492q0 -64 25.5 -99t74.5 -35q51 0 93.5 38.5t62.5 109.5l71 250q-45 49 -114 49q-63 0 -113.5 -51.5t-75 -122.5t-24.5 -139z" />
<glyph unicode="A" horiz-adv-x="1429" d="M-74 0l756 1434h360l248 -1434h-317l-39 268h-528l-132 -268h-348zM524 508h375l-84 582h-4z" />
<glyph unicode="B" horiz-adv-x="1359" d="M33 0l252 1434h592q210 0 327 -99t117 -258q0 -246 -272 -346q213 -76 213 -295q0 -208 -154 -322t-444 -114h-631zM385 248h305q121 0 192.5 56.5t71.5 156.5q0 77 -50.5 117t-141.5 40h-309zM489 836h267q115 0 180 57.5t65 148.5q0 144 -188 144h-262z" />
<glyph unicode="C" horiz-adv-x="1423" d="M92 623q0 172 62.5 325.5t172 266t267 178t338.5 65.5q305 0 504 -196l-183 -193q-140 127 -331 127q-101 0 -195 -43.5t-163 -117.5t-110.5 -178t-41.5 -220q0 -187 99 -293t261 -106q187 0 361 157l170 -209q-116 -100 -252 -155.5t-310 -55.5q-136 0 -254 44t-206 125 t-138.5 204.5t-50.5 274.5z" />
<glyph unicode="D" horiz-adv-x="1466" d="M31 0l254 1434h458q315 0 495.5 -157t180.5 -454q0 -141 -34.5 -263.5t-107.5 -226t-179.5 -177.5t-257 -115t-332.5 -41h-477zM389 252h176q165 0 288 76.5t184 202t61 280.5q0 188 -89.5 279.5t-275.5 91.5h-178z" />
<glyph unicode="E" horiz-adv-x="1277" d="M31 0l254 1434h1030l-49 -271h-713l-57 -315h634l-43 -240h-634l-62 -338h725l-47 -270h-1038z" />
<glyph unicode="F" horiz-adv-x="1249" d="M31 0l254 1434h1011l-47 -271h-696l-64 -336h605l-47 -254h-601l-100 -573h-315z" />
<glyph unicode="G" horiz-adv-x="1478" d="M92 614q0 175 61.5 329.5t170.5 268.5t270 180t350 66q149 0 282.5 -51t227.5 -135l-182 -193q-146 117 -340 117q-142 0 -261 -72.5t-189 -202.5t-70 -290q0 -180 97.5 -286.5t258.5 -106.5q144 0 254 65l49 283h-315l37 211h600l-119 -664q-237 -158 -535 -158 q-286 0 -466.5 177.5t-180.5 461.5z" />
<glyph unicode="H" horiz-adv-x="1433" d="M31 0l254 1434h313l-98 -574h532l103 574h313l-252 -1434h-315l106 594h-534l-107 -594h-315z" />
<glyph unicode="I" horiz-adv-x="585" d="M31 0l254 1434h313l-252 -1434h-315z" />
<glyph unicode="J" horiz-adv-x="1146" d="M4 274l236 132q48 -82 99 -126t124 -44q91 0 143.5 59.5t73.5 179.5l168 959h315l-168 -961q-45 -244 -181 -371t-359 -127q-151 0 -268 81.5t-183 217.5z" />
<glyph unicode="K" horiz-adv-x="1388" d="M31 0l254 1434h313l-113 -643l635 643h363l-543 -541l313 -893h-317l-225 666l-301 -301l-64 -365h-315z" />
<glyph unicode="L" horiz-adv-x="1210" d="M31 0l254 1434h313l-203 -1166h690l-47 -268h-1007z" />
<glyph unicode="M" horiz-adv-x="1732" d="M31 0l254 1434h290l316 -611l520 611h336l-254 -1434h-297l174 987l-541 -614l-325 614l-172 -987h-301z" />
<glyph unicode="N" horiz-adv-x="1482" d="M31 0l254 1434h258l487 -949l168 949h297l-254 -1434h-262l-483 950l-166 -950h-299z" />
<glyph unicode="O" horiz-adv-x="1640" d="M100 616q0 171 60 324.5t167 268t265 182t342 67.5q134 0 251.5 -43t207.5 -122.5t142 -202.5t52 -273q0 -171 -60 -324.5t-166.5 -268t-264.5 -182t-342 -67.5q-134 0 -252.5 43t-208 122.5t-141.5 202.5t-52 273zM420 633q0 -189 94 -292t258 -103q132 0 245.5 74.5 t181 204.5t67.5 284q0 189 -94.5 293t-256.5 104q-132 0 -246 -75t-181.5 -205.5t-67.5 -284.5z" />
<glyph unicode="P" horiz-adv-x="1357" d="M31 0l254 1434h575q121 0 216 -32t154.5 -88.5t90.5 -130.5t31 -161q0 -78 -19 -148t-65 -136t-116 -113.5t-179.5 -76t-247.5 -28.5h-287l-92 -520h-315zM483 762h273q127 0 201.5 72.5t74.5 177.5q0 174 -201 174h-274z" />
<glyph unicode="Q" horiz-adv-x="1640" d="M100 616q0 171 60 324.5t167 268t265 182t342 67.5q134 0 251.5 -43t207.5 -122.5t142 -202.5t52 -273q0 -169 -58 -320.5t-165 -265.5l135 -147l-164 -137l-133 149q-199 -121 -448 -121q-134 0 -252.5 43t-208 122.5t-141.5 202.5t-52 273zM420 633q0 -189 94 -292 t258 -103q134 0 250 77l-199 217l154 132l184 -211q105 153 105 348q0 189 -94.5 293t-256.5 104q-132 0 -246 -75t-181.5 -205.5t-67.5 -284.5z" />
<glyph unicode="R" horiz-adv-x="1404" d="M31 0l254 1434h602q230 0 361.5 -113.5t131.5 -296.5q0 -155 -83.5 -275t-258.5 -176l156 -573h-303l-123 535h-23h-303l-96 -535h-315zM483 762h301q125 0 200 73t75 177q0 174 -201 174h-301z" />
<glyph unicode="S" horiz-adv-x="1265" d="M14 160l170 223q196 -135 394 -135q116 0 182.5 48.5t66.5 121.5q0 30 -13 54t-27.5 39t-53 31.5t-62 24.5t-81.5 25q-7 2 -11 3.5t-10.5 3t-11.5 3.5q-45 14 -79 26t-76.5 31t-73 40t-61.5 51t-51 64.5t-32 81t-12 99.5q0 200 156 331.5t420 131.5q138 0 268 -38 t233 -101l-143 -229q-180 98 -369 98q-103 0 -168 -48.5t-65 -121.5q0 -45 34 -77t71 -46.5t126 -41.5q9 -3 15.5 -5t13.5 -4q49 -15 80 -26t77 -31t75 -39.5t62.5 -50.5t53 -66t32.5 -83t13 -104q0 -100 -37.5 -184t-110.5 -148.5t-189.5 -100.5t-264.5 -36 q-151 0 -294.5 53t-246.5 132z" />
<glyph unicode="T" horiz-adv-x="1335" d="M152 1159l47 275h1235l-50 -275h-454l-203 -1159h-313l204 1159h-466z" />
<glyph unicode="U" horiz-adv-x="1458" d="M115 430q0 62 16 172l150 832h315l-156 -859q-10 -65 -10 -122q0 -104 64.5 -159.5t175.5 -55.5q128 0 218 83t120 250l151 863h314l-156 -889q-49 -281 -230 -425.5t-466 -144.5q-228 0 -367 121t-139 334z" />
<glyph unicode="V" horiz-adv-x="1423" d="M180 1434h320l155 -1069h4l531 1069h350l-756 -1434h-354z" />
<glyph unicode="W" horiz-adv-x="2150" d="M188 1434h312l114 -985h4l443 985h287l104 -985h4l465 985h338l-696 -1434h-326l-102 967h-5l-436 -967h-319z" />
<glyph unicode="X" horiz-adv-x="1447" d="M-55 0l612 737l-336 697h348l213 -459l363 459h395l-590 -711l342 -723h-344l-219 489l-389 -489h-395z" />
<glyph unicode="Y" horiz-adv-x="1413" d="M174 1434h336l231 -549h4l420 549h373l-678 -861l-100 -573h-316l101 575z" />
<glyph unicode="Z" horiz-adv-x="1306" d="M-12 0l41 236l848 921h-684l49 277h1114l-41 -234l-844 -921h705l-48 -279h-1140z" />
<glyph unicode="[" horiz-adv-x="880" d="M-27 -410l344 1956h621l-37 -211h-317l-271 -1532h318l-39 -213h-619z" />
<glyph unicode="\" horiz-adv-x="1116" d="M152 1546h274l551 -1956h-275z" />
<glyph unicode="]" horiz-adv-x="880" d="M-72 -410l37 213h316l270 1532h-315l34 211h619l-344 -1956h-617z" />
<glyph unicode="^" horiz-adv-x="1191" d="M272 1151l355 381h291l217 -381h-232l-147 178l-217 -178h-267z" />
<glyph unicode="_" horiz-adv-x="1114" d="M-156 -283l47 256h1115l-45 -256h-1117z" />
<glyph unicode="`" horiz-adv-x="1181" d="M524 1460l213 135l189 -383h-185z" />
<glyph unicode="a" horiz-adv-x="1257" d="M61 422q0 195 71.5 355.5t196.5 252.5t277 92q95 0 173.5 -37t127.5 -96l35 111h268l-139 -791q-6 -36 -6 -49q0 -33 19 -46t59 -13l-35 -207q-20 -1 -39 -1q-108 0 -177 29q-81 34 -106 125q-136 -170 -348 -170q-162 0 -269.5 117t-107.5 328zM365 451 q0 -124 45.5 -185t119.5 -61q142 0 258 194l72 418q-96 80 -198 80q-127 0 -212 -129.5t-85 -316.5z" />
<glyph unicode="b" horiz-adv-x="1243" d="M23 0l272 1546h301l-104 -583q134 157 315 157q164 0 264 -118.5t100 -331.5q0 -304 -151.5 -497t-386.5 -193q-176 0 -305 139l-37 -119h-268zM371 291q88 -88 200 -88q89 0 158 64t104 167t35 225q0 120 -45 177t-118 57q-138 0 -259 -186z" />
<glyph unicode="c" horiz-adv-x="1073" d="M53 465q0 140 49 262.5t134 209.5t202.5 137t249.5 50q117 0 215.5 -40t161.5 -103l-166 -178q-97 80 -219 80q-130 0 -224 -115t-94 -285q0 -125 59.5 -195.5t156.5 -70.5q116 0 235 92l148 -190q-176 -144 -424 -144q-96 0 -182 32t-154 91.5t-108 154.5t-40 212z" />
<glyph unicode="d" horiz-adv-x="1245" d="M63 426q0 193 70.5 352t194.5 250.5t274 91.5q179 0 293 -114l96 540h299l-272 -1546h-246l4 152q-71 -84 -152 -128t-192 -44q-156 0 -262.5 118.5t-106.5 327.5zM367 453q0 -128 45.5 -188t119.5 -60q140 0 256 194l74 418q-93 80 -200 80q-127 0 -211 -129t-84 -315z " />
<glyph unicode="e" horiz-adv-x="1183" d="M61 457q0 188 87.5 341t240 239.5t338.5 86.5q181 0 293.5 -89t112.5 -222q0 -106 -78 -182t-216.5 -114t-324.5 -38h-147v-14q0 -129 56.5 -189.5t168.5 -60.5q139 0 295 94l108 -198q-201 -136 -442 -136q-219 0 -355.5 131t-136.5 351zM399 662h115q90 0 155.5 11.5 t102 32t53.5 45t17 54.5q0 44 -38 74t-102 30q-97 0 -179.5 -67t-123.5 -180z" />
<glyph unicode="f" horiz-adv-x="831" d="M78 874l37 207h168l12 58q73 426 489 426q147 0 271 -62l-107 -190q-67 26 -139 26q-87 0 -141 -49t-76 -164l-8 -45h272l-39 -207h-268l-154 -874h-301l154 874h-170z" />
<glyph unicode="g" horiz-adv-x="1245" d="M10 -285l135 203q166 -111 312 -111q114 0 178.5 56t87.5 186l20 105q-133 -146 -323 -146q-68 0 -130 25.5t-114.5 76t-83.5 137t-31 197.5q0 190 72 345.5t196.5 243t276.5 87.5q183 0 299 -123l33 103h270l-188 -1067q-20 -115 -60 -198.5t-108.5 -144t-170.5 -90.5 t-239 -30q-118 0 -235.5 40.5t-196.5 104.5zM365 461q0 -119 46 -178.5t117 -59.5q138 0 263 195l69 403q-90 78 -201 78q-124 0 -209 -127t-85 -311z" />
<glyph unicode="h" horiz-adv-x="1222" d="M23 0l274 1546h299l-107 -602q161 176 351 176q139 0 218 -76t79 -204q0 -64 -19 -176l-119 -664h-299l121 688q13 72 13 107q0 102 -101 102q-137 0 -289 -221l-120 -676h-301z" />
<glyph unicode="i" horiz-adv-x="548" d="M23 0l192 1083h299l-190 -1083h-301zM248 1278l45 256h299l-43 -256h-301z" />
<glyph unicode="j" horiz-adv-x="557" d="M-348 -356l110 198q62 -32 113 -32q64 0 100.5 47.5t55.5 156.5l188 1069h301l-194 -1093q-38 -222 -141.5 -321t-293.5 -99q-67 0 -130.5 21t-108.5 53zM252 1278l47 256h299l-43 -256h-303z" />
<glyph unicode="k" horiz-adv-x="1177" d="M23 0l272 1546h301l-160 -903l463 457h336l-420 -402l217 -698h-301l-141 481l-219 -211l-47 -270h-301z" />
<glyph unicode="l" horiz-adv-x="548" d="M23 0l272 1546h301l-272 -1546h-301z" />
<glyph unicode="m" horiz-adv-x="1847" d="M18 0l191 1100h250l-2 -172q74 89 168.5 141.5t203.5 52.5q108 0 179.5 -51t91.5 -145q175 196 385 196q128 0 202 -72t74 -190q0 -93 -20 -203l-117 -657h-291l123 692q10 73 10 103q0 100 -96 100q-133 0 -278 -201q-2 -4 -2 -12l-123 -682h-289l123 692q10 77 10 103 q0 100 -96 100q-133 0 -281 -211l-121 -684h-295z" />
<glyph unicode="n" horiz-adv-x="1218" d="M18 0l193 1100h250v-170q164 190 377 190q137 0 214.5 -77t77.5 -203q0 -71 -18 -181l-119 -659h-299l121 690q12 66 12 105q0 102 -98 102q-139 0 -291 -221l-119 -676h-301z" />
<glyph unicode="o" d="M63 467q0 286 178.5 471.5t454.5 185.5q215 0 351.5 -133t136.5 -360q0 -187 -81 -337t-226.5 -234.5t-327.5 -84.5q-215 0 -350.5 133t-135.5 359zM367 465q0 -131 53 -198.5t151 -67.5q84 0 155.5 62t112 161.5t40.5 210.5q0 132 -53 199t-152 67q-125 0 -216 -132 t-91 -302z" />
<glyph unicode="p" horiz-adv-x="1243" d="M-51 -410l264 1510h262v-144q148 164 336 164q158 0 259 -116.5t101 -335.5q0 -199 -70 -357t-192.5 -244.5t-273.5 -86.5q-177 0 -295 131l-94 -521h-297zM371 291q85 -88 200 -88q90 0 159 64.5t103.5 166.5t34.5 223q0 120 -45 178t-121 58q-133 0 -256 -184z" />
<glyph unicode="q" horiz-adv-x="1241" d="M63 430q0 198 72.5 356.5t196.5 246t274 87.5q95 0 175 -36.5t128 -94.5l35 111h266l-264 -1510h-301l96 539q-127 -149 -311 -149q-157 0 -262 118t-105 332zM367 451q0 -125 44 -185.5t117 -60.5q131 0 263 194l71 418q-96 80 -198 80q-128 0 -212.5 -129t-84.5 -317z " />
<glyph unicode="r" horiz-adv-x="884" d="M16 0l195 1100h248l2 -182q139 212 348 212q83 0 143 -26l-90 -264q-53 24 -129 24q-152 0 -307 -256l-109 -608h-301z" />
<glyph unicode="s" horiz-adv-x="1019" d="M-16 117l135 190q157 -104 313 -104q81 0 133.5 30t52.5 84q0 23 -11 41.5t-26.5 31t-45 24.5t-53.5 19.5t-64 17.5q-142 38 -225.5 113t-83.5 204q0 169 135.5 261.5t339.5 92.5q216 0 403 -114l-137 -191q-140 80 -275 80q-69 0 -119 -32.5t-50 -84.5q0 -23 11.5 -41 t28.5 -30.5t47 -24t55.5 -18t65.5 -15.5q69 -17 119.5 -38.5t93 -56.5t64.5 -87t22 -121q0 -120 -65.5 -205.5t-176 -126.5t-255.5 -41q-236 0 -432 142z" />
<glyph unicode="t" horiz-adv-x="876" d="M84 887l39 213h170l49 274h299l-49 -274h295l-35 -213h-297l-90 -504q-8 -39 -8 -86q0 -43 19.5 -62.5t60.5 -19.5q70 0 153 57l92 -198q-151 -99 -336 -99q-132 0 -213 72.5t-81 192.5q0 62 20 172l84 475h-172z" />
<glyph unicode="u" horiz-adv-x="1212" d="M66 258q0 83 16 174l119 668h299l-125 -701q-10 -55 -10 -100q0 -46 24.5 -73t75.5 -27q137 0 295 227l117 674h301l-193 -1100h-244v168q-171 -193 -383 -193q-139 0 -215.5 78t-76.5 205z" />
<glyph unicode="v" horiz-adv-x="1087" d="M117 1100h274l94 -774h4l363 774h299l-553 -1100h-319z" />
<glyph unicode="w" horiz-adv-x="1693" d="M117 1100h276l90 -715h4l318 715h235l74 -715h4l336 715h301l-545 -1100h-268l-80 678h-4l-313 -678h-273z" />
<glyph unicode="x" horiz-adv-x="1097" d="M-68 0l443 561l-238 539h289l139 -338l254 338h330l-434 -549l239 -551h-280l-152 352l-270 -352h-320z" />
<glyph unicode="y" horiz-adv-x="1114" d="M-143 -362l106 210q71 -38 137 -38q56 0 95.5 27t70.5 91l47 84l-200 1088h284l111 -727h4l356 727h308l-607 -1163q-77 -147 -147.5 -227t-143.5 -110t-176 -30q-129 0 -245 68z" />
<glyph unicode="z" horiz-adv-x="1052" d="M-20 0l36 197l625 675h-494l41 228h859l-33 -203l-621 -672h520l-36 -225h-897z" />
<glyph unicode="{" horiz-adv-x="995" d="M33 432l45 264h108q83 0 122.5 37.5t56.5 134.5l57 324q35 196 137 275t324 79h174l-37 -213h-125q-76 0 -117 -34.5t-53 -106.5l-59 -338q-23 -128 -82 -199t-178 -96v-2q163 -62 163 -211q0 -37 -10 -92l-53 -309q-6 -24 -6 -51q0 -91 121 -91h129l-39 -213h-144 q-370 0 -370 281q0 48 8 92l57 318q6 24 6 53q0 52 -30 75t-99 23h-106z" />
<glyph unicode="|" horiz-adv-x="645" d="M8 -410l344 1956h281l-346 -1956h-279z" />
<glyph unicode="}" horiz-adv-x="995" d="M-66 -410l37 213h125q76 0 117 34.5t55 107.5l56 327q23 128 82.5 199t179.5 98v2q-166 61 -166 213q0 28 8 90l57 318q7 28 7 51q0 46 -29 68t-92 22h-129l39 213h145q371 0 371 -276q0 -44 -9 -96l-63 -326q-4 -28 -4 -51q0 -54 30.5 -77.5t100.5 -23.5h106l-47 -264 h-108q-82 0 -121.5 -38.5t-56.5 -133.5l-56 -315q-36 -196 -136.5 -275.5t-321.5 -79.5h-177z" />
<glyph unicode="~" horiz-adv-x="1155" d="M94 389q2 168 77 272.5t222 104.5q57 0 112 -24t91 -52t81 -52t85 -24q81 0 98 121h195q2 -174 -71 -275.5t-226 -101.5q-55 0 -110 24t-92 53t-81.5 53t-81.5 24q-45 0 -70 -33.5t-30 -89.5h-199z" />
<glyph unicode="&#xa1;" horiz-adv-x="557" d="M-33 -332l49 277l205 712h154l-53 -712l-52 -277h-303zM176 834l47 268h305l-45 -268h-307z" />
<glyph unicode="&#xa2;" horiz-adv-x="1259" d="M76 508q0 140 51 263t142 213.5t225.5 143t293.5 52.5q20 0 60 -4l76 182h157l-86 -211q129 -45 228 -133l-164 -178q-77 67 -170 94l-297 -713q27 -6 63 -6q164 0 316 129l159 -184q-213 -181 -497 -181q-47 0 -115 11l-108 -258h-152l123 295q-144 60 -224.5 188 t-80.5 297zM375 522q0 -186 119 -266l280 688q-168 -3 -283.5 -124.5t-115.5 -297.5z" />
<glyph unicode="&#xa3;" horiz-adv-x="1277" d="M-29 182q0 92 69 151.5t175 59.5q90 0 217 -67q4 32 4 51q0 72 -28 145h-281l31 164h168q-39 90 -39 172q0 138 112.5 230t313.5 92q140 0 240 -60.5t145 -156.5l-213 -95q-23 45 -67 74t-99 29q-65 0 -106.5 -34.5t-41.5 -90.5q0 -61 47 -164h285l-29 -160h-190 q16 -53 16 -104q0 -111 -57 -207q81 -33 160 -33q72 0 107.5 46.5t29.5 131.5h244q19 -181 -71 -281t-261 -100q-156 0 -324 109q-142 -109 -323 -109q-107 0 -170.5 57.5t-63.5 149.5zM119 182q0 -37 25 -57.5t67 -20.5q43 0 88 24.5t78 68.5q-97 65 -160 65 q-43 0 -70.5 -22t-27.5 -58z" />
<glyph unicode="&#xa4;" horiz-adv-x="1370" d="M53 106l135 125q-69 117 -69 267q0 228 147 405l-100 129l131 105l96 -121q168 117 387 117q170 0 299 -107l127 115l113 -123l-131 -119q74 -120 74 -270q0 -237 -154 -412l98 -121l-131 -104l-94 114q-167 -110 -381 -110q-175 0 -305 108l-131 -118zM397 516 q0 -110 63.5 -179t176.5 -69q133 0 237.5 102.5t104.5 239.5q0 112 -62.5 180t-175.5 68q-134 0 -239 -103t-105 -239z" />
<glyph unicode="&#xa5;" horiz-adv-x="1236" d="M70 168l26 154h320l18 104h-317l26 158h320l-334 571h334l176 -326h4l293 326h369l-535 -571h320l-29 -158h-320l-18 -104h321l-28 -154h-320l-28 -168h-310l29 168h-317z" />
<glyph unicode="&#xa6;" horiz-adv-x="645" d="M8 -410l137 781h279l-137 -781h-279zM211 731l141 815h281l-144 -815h-278z" />
<glyph unicode="&#xa7;" horiz-adv-x="1103" d="M2 -147l178 143q49 -41 112.5 -64.5t123.5 -23.5q73 0 121.5 27t48.5 75q0 33 -37.5 60.5t-93.5 46t-122 45.5t-122 58t-93.5 86t-37.5 126q0 80 50 143t124 103q-82 79 -82 194q0 136 124 222t341 86q116 0 228 -42t182 -114l-181 -145q-47 42 -110 66t-125 24 q-72 0 -121 -27.5t-49 -75.5q0 -29 28 -52.5t73 -41.5t99 -37t108 -44t99 -56t73 -80t28 -111q0 -147 -176 -247q84 -74 84 -193q0 -136 -125 -222.5t-342 -86.5q-114 0 -226 43t-182 115zM344 475q0 -23 12.5 -43t30.5 -34.5t50 -29.5t58.5 -25t69 -25.5t68.5 -26.5 q72 46 72 110q0 23 -12.5 43.5t-30.5 34.5t-50.5 29.5t-58.5 25.5t-69.5 25.5t-69.5 26.5q-70 -52 -70 -111z" />
<glyph unicode="&#xa8;" horiz-adv-x="1236" d="M403 1260l41 235h244l-43 -235h-242zM846 1260l43 235h237l-41 -235h-239z" />
<glyph unicode="&#xa9;" horiz-adv-x="1695" d="M106 582q0 151 58.5 288.5t158 237t237 158.5t288.5 59t288.5 -59t237 -158.5t158.5 -237t59 -288.5t-59 -288.5t-158.5 -237t-237 -158t-288.5 -58.5q-202 0 -372.5 99.5t-270 270t-99.5 372.5zM231 582q0 -167 83 -310t225.5 -226t310.5 -83q126 0 241 49.5t198 132.5 t132 197.5t49 239.5q0 126 -49 241t-132 198t-198 132t-241 49q-168 0 -310.5 -83t-225.5 -226t-83 -311zM444 580q0 171 117 287t303 116q175 0 310 -117l-117 -139q-98 74 -183 74q-90 0 -150 -62t-60 -159q0 -100 58 -160t150 -60q106 0 187 78l127 -131 q-63 -61 -147.5 -96t-176.5 -35q-189 0 -303.5 113.5t-114.5 290.5z" />
<glyph unicode="&#xaa;" horiz-adv-x="792" d="M111 868q0 62 28.5 109.5t74 77t110 49.5t127 28t135.5 11l12 61q9 44 -10 64t-74 20q-102 0 -252 -69l-51 147q168 84 319 84q153 0 215.5 -70t42.5 -182l-55 -307q-7 -32 5 -43.5t46 -11.5l-24 -142q-91 0 -136.5 19.5t-66.5 64.5q-101 -98 -235 -98q-94 0 -152.5 52 t-58.5 136zM309 895q0 -30 20.5 -49t57.5 -19q91 0 154 60l26 139q-113 -3 -185.5 -36t-72.5 -95z" />
<glyph unicode="&#xab;" horiz-adv-x="1320" d="M63 555l469 547l187 -154l-367 -409l252 -400l-207 -139zM616 555l469 547l187 -154l-367 -409l252 -400l-207 -139z" />
<glyph unicode="&#xac;" horiz-adv-x="1314" d="M166 915l43 240h1098l-109 -620h-305l68 380h-795z" />
<glyph unicode="&#xad;" horiz-adv-x="774" d="M47 426l47 254h625l-43 -254h-629z" />
<glyph unicode="&#xae;" horiz-adv-x="1695" d="M106 582q0 151 58.5 288.5t158 237t237 158.5t288.5 59t288.5 -59t237 -158.5t158.5 -237t59 -288.5t-59 -288.5t-158.5 -237t-237 -158t-288.5 -58.5q-202 0 -372.5 99.5t-270 270t-99.5 372.5zM231 582q0 -167 83 -310t225.5 -226t310.5 -83q126 0 241 49.5t198 132.5 t132 197.5t49 239.5q0 126 -49 241t-132 198t-198 132t-241 49q-168 0 -310.5 -83t-225.5 -226t-83 -311zM530 201v770h392q149 0 224 -75t75 -181q0 -70 -34.5 -127t-103.5 -88q10 -18 71 -147t77 -152h-227l-119 272h-137v-272h-218zM748 616h141q61 0 90 29t29 68 q0 42 -29 71t-90 29h-141v-197z" />
<glyph unicode="&#xaf;" horiz-adv-x="1222" d="M424 1284l35 184h663l-32 -184h-666z" />
<glyph unicode="&#xb0;" horiz-adv-x="823" d="M152 1118q0 149 103.5 245.5t248.5 96.5q143 0 246.5 -96.5t103.5 -245.5q0 -153 -102 -246.5t-248 -93.5q-147 0 -249.5 93.5t-102.5 246.5zM332 1118q0 -76 51 -124t121 -48q71 0 120.5 48t49.5 124q0 75 -49.5 123.5t-120.5 48.5q-70 0 -121 -49t-51 -123z" />
<glyph unicode="&#xb1;" horiz-adv-x="1234" d="M-25 0l33 186h404l55 312h-404l48 250h403l64 354h270l-62 -354h406l-47 -250h-404l-55 -312h404l-33 -186h-1082z" />
<glyph unicode="&#xb2;" horiz-adv-x="684" d="M168 1024l10 84q8 68 37 122.5t68.5 89t86 62t91 46.5t81 36.5t59 39.5t22.5 48q0 32 -24 51t-67 19q-99 0 -196 -80l-98 115q58 52 140.5 86.5t162.5 34.5q117 0 188.5 -63.5t71.5 -158.5q0 -61 -30 -109t-75 -75.5t-98.5 -53t-100.5 -43.5t-81.5 -45t-40.5 -59h344 l-23 -147h-528z" />
<glyph unicode="&#xb3;" horiz-adv-x="704" d="M166 1092l82 122q93 -57 182 -57q65 0 106.5 31.5t41.5 77.5q0 35 -25 50t-80 15h-117l23 144h106q123 0 123 79q0 32 -24.5 53t-67.5 21q-79 0 -186 -63l-72 125q141 88 289 88q108 0 178 -56.5t70 -146.5q0 -117 -123 -174q44 -23 68 -62t24 -86q0 -113 -94 -178 t-236 -65q-74 0 -145 22t-123 60z" />
<glyph unicode="&#xb4;" horiz-adv-x="1181" d="M477 1212l314 383l198 -135l-315 -248h-197z" />
<glyph unicode="&#xb5;" horiz-adv-x="1200" d="M-66 -410l277 1565h309l-137 -768q-7 -48 -6.5 -88t27 -66t79.5 -26q130 0 275 217l129 731h311l-205 -1155h-260v156q-58 -80 -134.5 -126t-162.5 -46q-84 0 -133 49l-92 -443h-277z" />
<glyph unicode="&#xb6;" horiz-adv-x="1501" d="M152 934q0 69 20.5 137.5t66 134.5t111 116.5t164.5 81t217 30.5h764l-254 -1434h-266l217 1227h-174l-219 -1227h-264l98 557h-51q-90 0 -163.5 22t-122.5 58.5t-82 85.5t-47.5 102t-14.5 109z" />
<glyph unicode="&#xb7;" horiz-adv-x="491" d="M59 395l56 310h311l-55 -310h-312z" />
<glyph unicode="&#xb8;" horiz-adv-x="1181" d="M215 -352q113 79 202.5 177.5t125.5 203.5h194q-73 -295 -317 -484z" />
<glyph unicode="&#xb9;" horiz-adv-x="657" d="M184 1024l23 143h164l71 398l-129 -62l-67 135l280 127h140l-105 -598h144l-23 -143h-498z" />
<glyph unicode="&#xba;" horiz-adv-x="854" d="M133 1006q0 195 121.5 319.5t314.5 124.5q141 0 233.5 -89.5t92.5 -238.5q0 -195 -121.5 -318.5t-314.5 -123.5q-141 0 -233.5 88.5t-92.5 237.5zM328 1012q0 -85 37.5 -131.5t111.5 -46.5q94 0 158.5 85t64.5 197q0 85 -37.5 132.5t-111.5 47.5q-94 0 -158.5 -86 t-64.5 -198z" />
<glyph unicode="&#xbb;" horiz-adv-x="1323" d="M29 156l368 413l-256 396l207 137l336 -547l-469 -555zM582 156l368 413l-256 396l207 137l336 -547l-469 -555z" />
<glyph unicode="&#xbc;" horiz-adv-x="1648" d="M141 0l1415 1434h220l-1414 -1434h-221zM147 692l23 144h164l72 397l-130 -62l-67 136l280 127h140l-105 -598h144l-23 -144h-498zM950 274l422 465h195l-82 -456h82l-25 -146h-82l-24 -137h-181l27 137h-293zM1133 283h174l47 243z" />
<glyph unicode="&#xbd;" horiz-adv-x="1826" d="M141 0l1415 1434h220l-1414 -1434h-221zM147 692l23 144h164l72 397l-130 -62l-67 136l280 127h140l-105 -598h144l-23 -144h-498zM1110 0l10 84q8 68 37 122.5t68.5 89t86 62t91 46.5t81 36.5t59 39.5t22.5 48q0 32 -23.5 51t-66.5 19q-100 0 -197 -80l-98 115 q58 52 140.5 86.5t162.5 34.5q117 0 188.5 -63.5t71.5 -158.5q0 -61 -30 -109t-75 -75.5t-98.5 -53t-100.5 -43.5t-81.5 -45t-40.5 -59h344l-23 -147h-528z" />
<glyph unicode="&#xbe;" horiz-adv-x="1654" d="M143 0l1416 1434h219l-1413 -1434h-222zM147 760l82 123q94 -58 183 -58q65 0 106 31t41 78q0 35 -24.5 50t-79.5 15h-117l22 144h107q123 0 123 80q0 32 -24.5 52.5t-67.5 20.5q-80 0 -187 -63l-71 125q141 88 288 88q108 0 178 -56.5t70 -146.5q0 -117 -123 -174 q92 -48 92 -147q0 -113 -93.5 -178.5t-235.5 -65.5q-74 0 -145.5 22.5t-123.5 59.5zM956 274l422 465h195l-82 -456h82l-25 -146h-82l-24 -137h-180l26 137h-293zM1139 283h174l47 243z" />
<glyph unicode="&#xbf;" horiz-adv-x="1107" d="M-25 10q0 74 28 136t74 105.5t102 81.5t114 70t107.5 63t85 70t44.5 82l9 39h225q4 -37 -6 -82q-13 -76 -54.5 -139.5t-92.5 -103t-108.5 -77.5t-104.5 -67.5t-78 -69.5t-31 -85q0 -68 51.5 -107t126.5 -39q160 0 332 146l164 -176q-233 -213 -525 -213q-89 0 -170 22.5 t-147.5 66t-106 115.5t-39.5 162zM530 834l45 268h306l-45 -268h-306z" />
<glyph unicode="&#xc0;" horiz-adv-x="1429" d="M-74 0l756 1434h360l248 -1434h-317l-39 268h-528l-132 -268h-348zM524 508h375l-84 582h-4zM612 1716l228 137l166 -307h-177z" />
<glyph unicode="&#xc1;" horiz-adv-x="1429" d="M-74 0l756 1434h360l248 -1434h-317l-39 268h-528l-132 -268h-348zM524 508h375l-84 582h-4zM752 1546l266 307l221 -137l-287 -170h-200z" />
<glyph unicode="&#xc2;" horiz-adv-x="1429" d="M-74 0l756 1434h360l248 -1434h-317l-39 268h-528l-132 -268h-348zM494 1546l280 275h297l182 -275h-194l-152 133h-4l-194 -133h-215zM524 508h375l-84 582h-4z" />
<glyph unicode="&#xc3;" horiz-adv-x="1429" d="M-74 0l756 1434h360l248 -1434h-317l-39 268h-528l-132 -268h-348zM524 508h375l-84 582h-4zM528 1548q4 140 70 214.5t180 74.5q44 0 85 -16.5t66 -36.5t55.5 -36.5t55.5 -16.5q36 0 56.5 23t23.5 65h170q-4 -140 -70.5 -215.5t-181.5 -75.5q-44 0 -85 16.5t-66 36.5 t-55.5 36.5t-55.5 16.5q-72 0 -78 -86h-170z" />
<glyph unicode="&#xc4;" horiz-adv-x="1429" d="M-74 0l756 1434h360l248 -1434h-317l-39 268h-528l-132 -268h-348zM524 508h375l-84 582h-4zM532 1565l41 235h244l-43 -235h-242zM1001 1565l43 235h238l-43 -235h-238z" />
<glyph unicode="&#xc5;" horiz-adv-x="1429" d="M-74 0l744 1411q-37 52 -37 127q0 109 77.5 184.5t198.5 75.5q96 0 156.5 -60t60.5 -153q0 -112 -77 -186l241 -1399h-317l-39 268h-528l-132 -268h-348zM524 508h375l-84 582h-4zM752 1544q0 -51 28.5 -80.5t81.5 -29.5q61 0 104.5 43.5t43.5 103.5q0 50 -28.5 79.5 t-80.5 29.5q-63 0 -106 -43t-43 -103z" />
<glyph unicode="&#xc6;" horiz-adv-x="2117" d="M-82 0l877 1434h1359l-47 -271h-878l26 -311h717l-43 -248h-651l29 -334h651l-47 -270h-893l-21 268h-555l-157 -268h-367zM588 518h393l-41 588h-6z" />
<glyph unicode="&#xc7;" horiz-adv-x="1423" d="M92 623q0 172 62.5 325.5t172 266t267 178t338.5 65.5q305 0 504 -196l-183 -193q-140 127 -331 127q-101 0 -195 -43.5t-163 -117.5t-110.5 -178t-41.5 -220q0 -187 99 -293t261 -106q187 0 361 157l170 -209q-224 -193 -506 -209q-81 -258 -303 -432l-205 103 q228 160 311 340q-227 41 -367.5 208.5t-140.5 426.5z" />
<glyph unicode="&#xc8;" horiz-adv-x="1277" d="M31 0l254 1434h1030l-49 -271h-713l-57 -315h634l-43 -240h-634l-62 -338h725l-47 -270h-1038zM524 1716l228 137l166 -307h-177z" />
<glyph unicode="&#xc9;" horiz-adv-x="1277" d="M31 0l254 1434h1030l-49 -271h-713l-57 -315h634l-43 -240h-634l-62 -338h725l-47 -270h-1038zM684 1546l266 307l221 -137l-286 -170h-201z" />
<glyph unicode="&#xca;" horiz-adv-x="1277" d="M31 0l254 1434h1030l-49 -271h-713l-57 -315h634l-43 -240h-634l-62 -338h725l-47 -270h-1038zM442 1546l281 275h297l182 -275h-194l-152 133h-4l-195 -133h-215z" />
<glyph unicode="&#xcb;" horiz-adv-x="1277" d="M31 0l254 1434h1030l-49 -271h-713l-57 -315h634l-43 -240h-634l-62 -338h725l-47 -270h-1038zM469 1565l41 235h244l-43 -235h-242zM938 1565l43 235h238l-43 -235h-238z" />
<glyph unicode="&#xcc;" horiz-adv-x="585" d="M31 0l254 1434h313l-252 -1434h-315zM184 1716l228 137l166 -307h-177z" />
<glyph unicode="&#xcd;" horiz-adv-x="585" d="M31 0l254 1434h313l-252 -1434h-315zM332 1546l266 307l221 -137l-287 -170h-200z" />
<glyph unicode="&#xce;" horiz-adv-x="585" d="M31 0l254 1434h313l-252 -1434h-315zM68 1546l280 275h297l182 -275h-194l-152 133h-4l-194 -133h-215z" />
<glyph unicode="&#xcf;" horiz-adv-x="585" d="M31 0l254 1434h313l-252 -1434h-315zM106 1565l41 235h244l-43 -235h-242zM575 1565l43 235h238l-43 -235h-238z" />
<glyph unicode="&#xd0;" horiz-adv-x="1558" d="M39 633l33 178h184l111 623h458q315 0 495.5 -157t180.5 -454q0 -141 -34.5 -263.5t-107.5 -226t-179.5 -177.5t-257 -115t-332.5 -41h-477l110 633h-184zM471 252h176q165 0 288 76.5t184 202t61 280.5q0 188 -89.5 279.5t-275.5 91.5h-178l-68 -371h305l-30 -178h-305z " />
<glyph unicode="&#xd1;" horiz-adv-x="1482" d="M31 0l254 1434h258l487 -949l168 949h297l-254 -1434h-262l-483 950l-166 -950h-299zM539 1548q4 140 69.5 214.5t179.5 74.5q44 0 85 -16.5t66.5 -36.5t56 -36.5t55.5 -16.5q73 0 79 88h170q-4 -140 -70 -215.5t-181 -75.5q-44 0 -85 16.5t-66.5 36.5t-56 36.5 t-55.5 16.5q-71 0 -77 -86h-170z" />
<glyph unicode="&#xd2;" horiz-adv-x="1640" d="M100 616q0 171 60 324.5t167 268t265 182t342 67.5q134 0 251.5 -43t207.5 -122.5t142 -202.5t52 -273q0 -171 -60 -324.5t-166.5 -268t-264.5 -182t-342 -67.5q-134 0 -252.5 43t-208 122.5t-141.5 202.5t-52 273zM420 633q0 -189 94 -292t258 -103q132 0 245.5 74.5 t181 204.5t67.5 284q0 189 -94.5 293t-256.5 104q-132 0 -246 -75t-181.5 -205.5t-67.5 -284.5zM672 1716l227 137l166 -307h-176z" />
<glyph unicode="&#xd3;" horiz-adv-x="1640" d="M100 616q0 171 60 324.5t167 268t265 182t342 67.5q134 0 251.5 -43t207.5 -122.5t142 -202.5t52 -273q0 -171 -60 -324.5t-166.5 -268t-264.5 -182t-342 -67.5q-134 0 -252.5 43t-208 122.5t-141.5 202.5t-52 273zM420 633q0 -189 94 -292t258 -103q132 0 245.5 74.5 t181 204.5t67.5 284q0 189 -94.5 293t-256.5 104q-132 0 -246 -75t-181.5 -205.5t-67.5 -284.5zM823 1546l267 307l221 -137l-287 -170h-201z" />
<glyph unicode="&#xd4;" horiz-adv-x="1640" d="M100 616q0 171 60 324.5t167 268t265 182t342 67.5q134 0 251.5 -43t207.5 -122.5t142 -202.5t52 -273q0 -171 -60 -324.5t-166.5 -268t-264.5 -182t-342 -67.5q-134 0 -252.5 43t-208 122.5t-141.5 202.5t-52 273zM420 633q0 -189 94 -292t258 -103q132 0 245.5 74.5 t181 204.5t67.5 284q0 189 -94.5 293t-256.5 104q-132 0 -246 -75t-181.5 -205.5t-67.5 -284.5zM569 1546l281 275h297l182 -275h-194l-152 133h-4l-195 -133h-215z" />
<glyph unicode="&#xd5;" horiz-adv-x="1640" d="M100 616q0 171 60 324.5t167 268t265 182t342 67.5q134 0 251.5 -43t207.5 -122.5t142 -202.5t52 -273q0 -171 -60 -324.5t-166.5 -268t-264.5 -182t-342 -67.5q-134 0 -252.5 43t-208 122.5t-141.5 202.5t-52 273zM420 633q0 -189 94 -292t258 -103q132 0 245.5 74.5 t181 204.5t67.5 284q0 189 -94.5 293t-256.5 104q-132 0 -246 -75t-181.5 -205.5t-67.5 -284.5zM604 1548q4 140 70 214.5t180 74.5q44 0 85 -16.5t66 -36.5t55.5 -36.5t55.5 -16.5q36 0 56.5 23t23.5 65h170q-4 -140 -70.5 -215.5t-181.5 -75.5q-44 0 -85 16.5t-66 36.5 t-55.5 36.5t-55.5 16.5q-72 0 -78 -86h-170z" />
<glyph unicode="&#xd6;" horiz-adv-x="1640" d="M100 616q0 171 60 324.5t167 268t265 182t342 67.5q134 0 251.5 -43t207.5 -122.5t142 -202.5t52 -273q0 -171 -60 -324.5t-166.5 -268t-264.5 -182t-342 -67.5q-134 0 -252.5 43t-208 122.5t-141.5 202.5t-52 273zM420 633q0 -189 94 -292t258 -103q132 0 245.5 74.5 t181 204.5t67.5 284q0 189 -94.5 293t-256.5 104q-132 0 -246 -75t-181.5 -205.5t-67.5 -284.5zM618 1565l41 235h244l-43 -235h-242zM1087 1565l43 235h238l-43 -235h-238z" />
<glyph unicode="&#xd7;" horiz-adv-x="1191" d="M51 240l371 323l-254 322l199 166l249 -324l359 326l164 -191l-363 -323l248 -318l-199 -164l-243 318l-365 -324z" />
<glyph unicode="&#xd8;" horiz-adv-x="1640" d="M63 33l168 174q-131 166 -131 409q0 171 60 324.5t167 268t265 182t342 67.5q220 0 393 -115l160 173l127 -115l-164 -170q137 -170 137 -414q0 -171 -60 -324.5t-166.5 -268t-264.5 -182t-342 -67.5q-232 0 -404 119l-166 -174zM420 633q0 -120 39 -209l674 704 q-89 70 -218 70q-132 0 -246 -75t-181.5 -205.5t-67.5 -284.5zM545 311q85 -73 227 -73q132 0 245.5 74.5t181 204.5t67.5 284q0 124 -43 215z" />
<glyph unicode="&#xd9;" horiz-adv-x="1458" d="M115 430q0 62 16 172l150 832h315l-156 -859q-10 -65 -10 -122q0 -104 64.5 -159.5t175.5 -55.5q128 0 218 83t120 250l151 863h314l-156 -889q-49 -281 -230 -425.5t-466 -144.5q-228 0 -367 121t-139 334zM610 1716l228 137l166 -307h-177z" />
<glyph unicode="&#xda;" horiz-adv-x="1458" d="M115 430q0 62 16 172l150 832h315l-156 -859q-10 -65 -10 -122q0 -104 64.5 -159.5t175.5 -55.5q128 0 218 83t120 250l151 863h314l-156 -889q-49 -281 -230 -425.5t-466 -144.5q-228 0 -367 121t-139 334zM766 1546l266 307l221 -137l-286 -170h-201z" />
<glyph unicode="&#xdb;" horiz-adv-x="1458" d="M115 430q0 62 16 172l150 832h315l-156 -859q-10 -65 -10 -122q0 -104 64.5 -159.5t175.5 -55.5q128 0 218 83t120 250l151 863h314l-156 -889q-49 -281 -230 -425.5t-466 -144.5q-228 0 -367 121t-139 334zM504 1546l280 275h297l183 -275h-195l-151 133h-5l-194 -133 h-215z" />
<glyph unicode="&#xdc;" horiz-adv-x="1458" d="M115 430q0 62 16 172l150 832h315l-156 -859q-10 -65 -10 -122q0 -104 64.5 -159.5t175.5 -55.5q128 0 218 83t120 250l151 863h314l-156 -889q-49 -281 -230 -425.5t-466 -144.5q-228 0 -367 121t-139 334zM543 1565l41 235h243l-43 -235h-241zM1012 1565l43 235h237 l-43 -235h-237z" />
<glyph unicode="&#xdd;" horiz-adv-x="1413" d="M174 1434h336l231 -549h4l420 549h373l-678 -861l-100 -573h-316l101 575zM713 1546l266 307l221 -137l-287 -170h-200z" />
<glyph unicode="&#xde;" horiz-adv-x="1361" d="M31 0l254 1434h313l-39 -234h225q246 0 380 -111.5t134 -306.5q0 -86 -22 -163t-73 -146.5t-126.5 -119.5t-189.5 -79.5t-256 -29.5h-244l-41 -244h-315zM434 487h225q149 0 234.5 75t85.5 198q0 101 -58.5 148.5t-181.5 47.5h-223z" />
<glyph unicode="&#xdf;" horiz-adv-x="1335" d="M14 0l195 1092q42 234 196 352.5t404 118.5q205 0 337 -112t132 -290q0 -138 -78.5 -237t-214.5 -144v-2q124 -36 191 -122t67 -214q0 -142 -73 -248.5t-192 -160t-263 -53.5q-138 0 -264 45l84 225q78 -29 153 -29q107 0 180.5 67t73.5 183q0 96 -60 144.5t-167 48.5 h-82l45 237h39q117 0 187.5 67t70.5 183q0 89 -51.5 139.5t-145.5 50.5q-104 0 -177 -68t-95 -190l-191 -1083h-301z" />
<glyph unicode="&#xe0;" d="M61 422q0 195 71.5 355.5t196.5 252.5t277 92q95 0 173.5 -37t127.5 -96l35 111h268l-139 -791q-6 -36 -6 -49q0 -33 19 -46t59 -13l-35 -207q-135 -6 -216 28t-106 125q-136 -170 -348 -170q-162 0 -269.5 117t-107.5 328zM365 451q0 -124 45.5 -185t119.5 -61 q142 0 258 194l72 418q-96 80 -198 80q-127 0 -212 -129.5t-85 -316.5zM444 1460l213 135l189 -383h-184z" />
<glyph unicode="&#xe1;" d="M61 422q0 195 71.5 355.5t196.5 252.5t277 92q95 0 173.5 -37t127.5 -96l35 111h268l-139 -791q-6 -36 -6 -49q0 -33 19 -46t59 -13l-35 -207q-135 -6 -216 28t-106 125q-136 -170 -348 -170q-162 0 -269.5 117t-107.5 328zM365 451q0 -124 45.5 -185t119.5 -61 q142 0 258 194l72 418q-96 80 -198 80q-127 0 -212 -129.5t-85 -316.5zM557 1212l313 383l199 -135l-315 -248h-197z" />
<glyph unicode="&#xe2;" d="M61 422q0 195 71.5 355.5t196.5 252.5t277 92q95 0 173.5 -37t127.5 -96l35 111h268l-139 -791q-6 -36 -6 -49q0 -33 19 -46t59 -13l-35 -207q-135 -6 -216 28t-106 125q-136 -170 -348 -170q-162 0 -269.5 117t-107.5 328zM330 1212l303 328h313l187 -328h-201l-152 174 h-6l-215 -174h-229zM365 451q0 -124 45.5 -185t119.5 -61q142 0 258 194l72 418q-96 80 -198 80q-127 0 -212 -129.5t-85 -316.5z" />
<glyph unicode="&#xe3;" d="M61 422q0 195 71.5 355.5t196.5 252.5t277 92q95 0 173.5 -37t127.5 -96l35 111h268l-139 -791q-6 -36 -6 -49q0 -33 19 -46t59 -13l-35 -207q-135 -6 -216 28t-106 125q-136 -170 -348 -170q-162 0 -269.5 117t-107.5 328zM365 451q0 -124 45.5 -185t119.5 -61 q142 0 258 194l72 418q-96 80 -198 80q-127 0 -212 -129.5t-85 -316.5zM385 1237q6 142 71.5 218.5t178.5 76.5q44 0 84 -17t64.5 -37.5t54.5 -37.5t57 -17q70 0 76 93h172q-7 -141 -73.5 -217t-180.5 -76q-43 0 -82 16.5t-63.5 36.5t-54 36.5t-54.5 16.5q-71 0 -80 -92 h-170z" />
<glyph unicode="&#xe4;" d="M61 422q0 195 71.5 355.5t196.5 252.5t277 92q95 0 173.5 -37t127.5 -96l35 111h268l-139 -791q-6 -36 -6 -49q0 -33 19 -46t59 -13l-35 -207q-135 -6 -216 28t-106 125q-136 -170 -348 -170q-162 0 -269.5 117t-107.5 328zM365 451q0 -124 45.5 -185t119.5 -61 q142 0 258 194l72 418q-96 80 -198 80q-127 0 -212 -129.5t-85 -316.5zM399 1260l41 235h244l-43 -235h-242zM842 1260l43 235h237l-41 -235h-239z" />
<glyph unicode="&#xe5;" d="M61 422q0 195 71.5 355.5t196.5 252.5t277 92q95 0 173.5 -37t127.5 -96l35 111h268l-139 -791q-6 -36 -6 -49q0 -33 19 -46t59 -13l-35 -207q-135 -6 -216 28t-106 125q-136 -170 -348 -170q-162 0 -269.5 117t-107.5 328zM365 451q0 -124 45.5 -185t119.5 -61 q142 0 258 194l72 418q-96 80 -198 80q-127 0 -212 -129.5t-85 -316.5zM506 1411q0 110 78 186t198 76q93 0 156 -60.5t63 -150.5q0 -111 -78 -186.5t-200 -75.5q-91 0 -154 60.5t-63 150.5zM627 1417q0 -50 28 -79t80 -29q58 0 103 44t45 103q0 50 -29 78.5t-82 28.5 q-59 0 -102 -43t-43 -103z" />
<glyph unicode="&#xe6;" horiz-adv-x="1935" d="M61 422q0 196 71 356t199 253t287 93q224 0 420 -174v-4q172 178 443 178q181 0 292 -89t111 -222q0 -106 -78 -182t-215.5 -114t-322.5 -38h-146v-24q0 -240 221 -240q138 0 293 98l113 -202q-201 -136 -444 -136q-147 0 -249.5 64t-154.5 184q-83 -114 -202 -181 t-242 -67q-174 0 -285 118t-111 329zM365 451q0 -124 45.5 -185t119.5 -61q73 0 139 52t119 144l11 62q0 2 5.5 31t6.5 30l49 293q-93 80 -198 80q-127 0 -212 -129.5t-85 -316.5zM1151 662h115q175 0 251 39.5t76 103.5q0 44 -37 74t-100 30q-95 0 -179 -66t-126 -181z" />
<glyph unicode="&#xe7;" horiz-adv-x="1073" d="M59 465q0 140 49 262.5t134 209.5t202.5 137t249.5 50q117 0 215.5 -40t161.5 -103l-166 -178q-97 80 -219 80q-130 0 -223.5 -115t-93.5 -285q0 -125 59 -195.5t156 -70.5q116 0 235 92l148 -190q-152 -128 -359 -142q-81 -258 -303 -432l-205 103q102 72 186.5 160.5 t125.5 183.5q-156 37 -254.5 159.5t-98.5 313.5z" />
<glyph unicode="&#xe8;" horiz-adv-x="1183" d="M61 457q0 188 87.5 341t240 239.5t338.5 86.5q181 0 293.5 -89t112.5 -222q0 -106 -78 -182t-216.5 -114t-324.5 -38h-147v-14q0 -129 56.5 -189.5t168.5 -60.5q139 0 295 94l108 -198q-201 -136 -442 -136q-219 0 -355.5 131t-136.5 351zM399 662h115q90 0 155.5 11.5 t102 32t53.5 45t17 54.5q0 44 -38 74t-102 30q-97 0 -179.5 -67t-123.5 -180zM434 1460l213 135l189 -383h-185z" />
<glyph unicode="&#xe9;" horiz-adv-x="1183" d="M61 457q0 188 87.5 341t240 239.5t338.5 86.5q181 0 293.5 -89t112.5 -222q0 -106 -78 -182t-216.5 -114t-324.5 -38h-147v-14q0 -129 56.5 -189.5t168.5 -60.5q139 0 295 94l108 -198q-201 -136 -442 -136q-219 0 -355.5 131t-136.5 351zM399 662h115q90 0 155.5 11.5 t102 32t53.5 45t17 54.5q0 44 -38 74t-102 30q-97 0 -179.5 -67t-123.5 -180zM563 1212l314 383l198 -135l-315 -248h-197z" />
<glyph unicode="&#xea;" horiz-adv-x="1183" d="M61 457q0 188 87.5 341t240 239.5t338.5 86.5q181 0 293.5 -89t112.5 -222q0 -106 -78 -182t-216.5 -114t-324.5 -38h-147v-14q0 -129 56.5 -189.5t168.5 -60.5q139 0 295 94l108 -198q-201 -136 -442 -136q-219 0 -355.5 131t-136.5 351zM315 1212l303 328h314l186 -328 h-200l-152 174h-6l-215 -174h-230zM399 662h115q90 0 155.5 11.5t102 32t53.5 45t17 54.5q0 44 -38 74t-102 30q-97 0 -179.5 -67t-123.5 -180z" />
<glyph unicode="&#xeb;" horiz-adv-x="1183" d="M61 457q0 188 87.5 341t240 239.5t338.5 86.5q181 0 293.5 -89t112.5 -222q0 -106 -78 -182t-216.5 -114t-324.5 -38h-147v-14q0 -129 56.5 -189.5t168.5 -60.5q139 0 295 94l108 -198q-201 -136 -442 -136q-219 0 -355.5 131t-136.5 351zM385 1260l41 235h244l-43 -235 h-242zM399 662h115q90 0 155.5 11.5t102 32t53.5 45t17 54.5q0 44 -38 74t-102 30q-97 0 -179.5 -67t-123.5 -180zM827 1260l43 235h238l-41 -235h-240z" />
<glyph unicode="&#xec;" horiz-adv-x="548" d="M23 0l192 1083h299l-190 -1083h-301zM113 1460l213 135l188 -383h-184z" />
<glyph unicode="&#xed;" horiz-adv-x="548" d="M23 0l192 1083h299l-190 -1083h-301zM236 1212l313 383l199 -135l-316 -248h-196z" />
<glyph unicode="&#xee;" horiz-adv-x="548" d="M-25 1212l304 328h313l186 -328h-200l-152 174h-6l-215 -174h-230zM23 0l192 1083h299l-190 -1083h-301z" />
<glyph unicode="&#xef;" horiz-adv-x="548" d="M23 0l192 1083h299l-190 -1083h-301zM47 1260l41 235h244l-43 -235h-242zM489 1260l43 235h238l-41 -235h-240z" />
<glyph unicode="&#xf0;" horiz-adv-x="1226" d="M49 432q0 230 148.5 376t375.5 146q152 0 269 -88q-32 160 -133 320l-283 -113l-66 150l252 96q-79 98 -211 227h322q75 -78 121 -137l221 88l61 -154l-184 -71q207 -315 207 -637q0 -308 -170 -484t-449 -176q-223 0 -352 129t-129 328zM350 430q0 -110 53 -173.5 t150 -63.5q132 0 217 123t84 337v2q-104 101 -236 101q-109 0 -188.5 -92t-79.5 -234z" />
<glyph unicode="&#xf1;" horiz-adv-x="1218" d="M18 0l193 1100h250v-170q164 190 377 190q137 0 214.5 -77t77.5 -203q0 -71 -18 -181l-119 -659h-299l121 690q12 66 12 105q0 102 -98 102q-139 0 -291 -221l-119 -676h-301zM379 1237q6 142 71.5 218.5t178.5 76.5q44 0 84 -17t64.5 -37.5t54.5 -37.5t57 -17 q70 0 76 93h172q-7 -141 -73.5 -217t-180.5 -76q-43 0 -82 16.5t-63.5 36.5t-54 36.5t-54.5 16.5q-71 0 -80 -92h-170z" />
<glyph unicode="&#xf2;" d="M63 467q0 286 178.5 471.5t454.5 185.5q215 0 351.5 -133t136.5 -360q0 -187 -81 -337t-226.5 -234.5t-327.5 -84.5q-215 0 -350.5 133t-135.5 359zM367 465q0 -131 53 -198.5t151 -67.5q84 0 155.5 62t112 161.5t40.5 210.5q0 132 -53 199t-152 67q-125 0 -216 -132 t-91 -302zM434 1460l213 135l189 -383h-185z" />
<glyph unicode="&#xf3;" d="M63 467q0 286 178.5 471.5t454.5 185.5q215 0 351.5 -133t136.5 -360q0 -187 -81 -337t-226.5 -234.5t-327.5 -84.5q-215 0 -350.5 133t-135.5 359zM367 465q0 -131 53 -198.5t151 -67.5q84 0 155.5 62t112 161.5t40.5 210.5q0 132 -53 199t-152 67q-125 0 -216 -132 t-91 -302zM547 1212l313 383l199 -135l-316 -248h-196z" />
<glyph unicode="&#xf4;" d="M63 467q0 286 178.5 471.5t454.5 185.5q215 0 351.5 -133t136.5 -360q0 -187 -81 -337t-226.5 -234.5t-327.5 -84.5q-215 0 -350.5 133t-135.5 359zM309 1212l303 328h314l186 -328h-201l-151 174h-6l-215 -174h-230zM367 465q0 -131 53 -198.5t151 -67.5q84 0 155.5 62 t112 161.5t40.5 210.5q0 132 -53 199t-152 67q-125 0 -216 -132t-91 -302z" />
<glyph unicode="&#xf5;" d="M63 467q0 286 178.5 471.5t454.5 185.5q215 0 351.5 -133t136.5 -360q0 -187 -81 -337t-226.5 -234.5t-327.5 -84.5q-215 0 -350.5 133t-135.5 359zM367 465q0 -131 53 -198.5t151 -67.5q84 0 155.5 62t112 161.5t40.5 210.5q0 132 -53 199t-152 67q-125 0 -216 -132 t-91 -302zM369 1237q6 142 71 218.5t178 76.5q44 0 84.5 -17t65 -37.5t54.5 -37.5t57 -17q69 0 75 93h172q-7 -141 -73.5 -217t-180.5 -76q-43 0 -82 16.5t-63.5 36.5t-54 36.5t-54.5 16.5q-37 0 -55.5 -22.5t-23.5 -69.5h-170z" />
<glyph unicode="&#xf6;" d="M63 467q0 286 178.5 471.5t454.5 185.5q215 0 351.5 -133t136.5 -360q0 -187 -81 -337t-226.5 -234.5t-327.5 -84.5q-215 0 -350.5 133t-135.5 359zM367 465q0 -131 53 -198.5t151 -67.5q84 0 155.5 62t112 161.5t40.5 210.5q0 132 -53 199t-152 67q-125 0 -216 -132 t-91 -302zM381 1260l41 235h244l-43 -235h-242zM823 1260l43 235h238l-41 -235h-240z" />
<glyph unicode="&#xf7;" horiz-adv-x="1234" d="M51 428l45 248h1084l-45 -248h-1084zM389 29l39 229h256l-39 -229h-256zM532 846l41 229h256l-41 -229h-256z" />
<glyph unicode="&#xf8;" d="M-4 -4l160 162q-93 126 -93 309q0 286 178.5 471.5t454.5 185.5q164 0 291 -84l150 160l118 -106l-157 -162q86 -125 86 -301q0 -187 -81 -337t-226.5 -234.5t-327.5 -84.5q-167 0 -285 80l-153 -164zM367 465q0 -56 8 -92l444 467q-53 59 -145 59q-125 0 -216 -132 t-91 -302zM432 250q51 -51 139 -51q84 0 155.5 62t112 161.5t40.5 210.5q0 26 -9 82z" />
<glyph unicode="&#xf9;" horiz-adv-x="1212" d="M66 258q0 83 16 174l119 668h299l-125 -701q-10 -55 -10 -100q0 -46 24.5 -73t75.5 -27q137 0 295 227l117 674h301l-193 -1100h-244v168q-171 -193 -383 -193q-139 0 -215.5 78t-76.5 205zM412 1460l213 135l188 -383h-184z" />
<glyph unicode="&#xfa;" horiz-adv-x="1212" d="M66 258q0 83 16 174l119 668h299l-125 -701q-10 -55 -10 -100q0 -46 24.5 -73t75.5 -27q137 0 295 227l117 674h301l-193 -1100h-244v168q-171 -193 -383 -193q-139 0 -215.5 78t-76.5 205zM565 1212l314 383l198 -135l-315 -248h-197z" />
<glyph unicode="&#xfb;" horiz-adv-x="1212" d="M66 258q0 83 16 174l119 668h299l-125 -701q-10 -55 -10 -100q0 -46 24.5 -73t75.5 -27q137 0 295 227l117 674h301l-193 -1100h-244v168q-171 -193 -383 -193q-139 0 -215.5 78t-76.5 205zM307 1212l303 328h314l186 -328h-201l-151 174h-6l-215 -174h-230z" />
<glyph unicode="&#xfc;" horiz-adv-x="1212" d="M66 258q0 83 16 174l119 668h299l-125 -701q-10 -55 -10 -100q0 -46 24.5 -73t75.5 -27q137 0 295 227l117 674h301l-193 -1100h-244v168q-171 -193 -383 -193q-139 0 -215.5 78t-76.5 205zM371 1260l41 235h243l-43 -235h-241zM813 1260l43 235h238l-41 -235h-240z" />
<glyph unicode="&#xfd;" horiz-adv-x="1114" d="M-143 -362l106 210q71 -38 137 -38q56 0 95.5 27t70.5 91l47 84l-200 1088h284l111 -727h4l356 727h308l-607 -1163q-77 -147 -147.5 -227t-143.5 -110t-176 -30q-129 0 -245 68zM508 1212l313 383l199 -135l-315 -248h-197z" />
<glyph unicode="&#xfe;" horiz-adv-x="1243" d="M-51 -410l346 1956h303l-104 -571q135 145 317 145q158 0 259 -116.5t101 -335.5q0 -199 -70 -357t-192.5 -244.5t-273.5 -86.5q-177 0 -295 131l-94 -521h-297zM371 291q85 -88 200 -88q90 0 159 64.5t103.5 166.5t34.5 223q0 120 -45 178t-121 58q-133 0 -256 -184z " />
<glyph unicode="&#xff;" horiz-adv-x="1114" d="M-143 -362l106 210q71 -38 137 -38q56 0 95.5 27t70.5 91l47 84l-200 1088h284l111 -727h4l356 727h308l-607 -1163q-77 -147 -147.5 -227t-143.5 -110t-176 -30q-129 0 -245 68zM319 1260l41 235h244l-43 -235h-242zM762 1260l43 235h237l-41 -235h-239z" />
<glyph unicode="&#x152;" horiz-adv-x="2383" d="M100 616q0 170 60.5 324t167 268.5t260.5 182t332 67.5q145 0 264.5 -54t177.5 -151l31 181h1028l-47 -271h-715l-57 -315h636l-43 -240h-634l-62 -338h725l-47 -270h-1036l26 147q-184 -172 -442 -172q-120 0 -231.5 43t-199.5 122t-141 203t-53 273zM420 633 q0 -189 94 -292t258 -103q98 0 189 44t158 118.5t107 179.5t40 221q0 189 -94.5 293t-256.5 104q-132 0 -245.5 -74.5t-181.5 -205t-68 -285.5z" />
<glyph unicode="&#x153;" horiz-adv-x="1988" d="M63 467q0 286 178.5 471.5t454.5 185.5q263 0 371 -206q81 97 202 151.5t267 54.5q181 0 293.5 -89t112.5 -222q0 -106 -78 -182t-216.5 -114t-324.5 -38h-145q-2 -6 -2 -24q3 -240 223 -240q138 0 293 98l112 -202q-201 -136 -444 -136q-263 0 -375 203 q-76 -97 -187.5 -150t-248.5 -53q-215 0 -350.5 133t-135.5 359zM367 465q0 -131 53 -198.5t151 -67.5q84 0 155.5 62t112 161.5t40.5 210.5q0 132 -53 199t-152 67q-125 0 -216 -132t-91 -302zM1206 662h115q176 0 253 39.5t77 103.5q0 44 -38 74t-102 30q-95 0 -179 -66 t-126 -181z" />
<glyph unicode="&#x178;" horiz-adv-x="1413" d="M174 1434h336l231 -549h4l420 549h373l-678 -861l-100 -573h-316l101 575zM504 1565l41 235h243l-43 -235h-241zM973 1565l43 235h237l-43 -235h-237z" />
<glyph unicode="&#x2c6;" horiz-adv-x="1253" d="M362 1212l304 328h313l186 -328h-200l-152 174h-6l-215 -174h-230z" />
<glyph unicode="&#x2dc;" horiz-adv-x="1236" d="M395 1237q6 142 71.5 218.5t178.5 76.5q44 0 84 -17t64.5 -37.5t54.5 -37.5t57 -17q70 0 76 93h172q-7 -141 -73.5 -217t-180.5 -76q-43 0 -82 16.5t-63.5 36.5t-54 36.5t-54.5 16.5q-71 0 -80 -92h-170z" />
<glyph unicode="&#x2000;" horiz-adv-x="926" />
<glyph unicode="&#x2001;" horiz-adv-x="1853" />
<glyph unicode="&#x2002;" horiz-adv-x="926" />
<glyph unicode="&#x2003;" horiz-adv-x="1853" />
<glyph unicode="&#x2004;" horiz-adv-x="617" />
<glyph unicode="&#x2005;" horiz-adv-x="463" />
<glyph unicode="&#x2006;" horiz-adv-x="308" />
<glyph unicode="&#x2007;" horiz-adv-x="308" />
<glyph unicode="&#x2008;" horiz-adv-x="231" />
<glyph unicode="&#x2009;" horiz-adv-x="370" />
<glyph unicode="&#x200a;" horiz-adv-x="102" />
<glyph unicode="&#x2010;" horiz-adv-x="774" d="M47 426l47 254h625l-43 -254h-629z" />
<glyph unicode="&#x2011;" horiz-adv-x="774" d="M47 426l47 254h625l-43 -254h-629z" />
<glyph unicode="&#x2012;" horiz-adv-x="774" d="M47 426l47 254h625l-43 -254h-629z" />
<glyph unicode="&#x2013;" horiz-adv-x="1257" d="M49 426l45 254h1108l-45 -254h-1108z" />
<glyph unicode="&#x2014;" horiz-adv-x="1814" d="M57 426l45 254h1645l-45 -254h-1645z" />
<glyph unicode="&#x2018;" horiz-adv-x="497" d="M131 793l39 213q31 183 104.5 276.5t229.5 144.5l43 -116q-162 -57 -189 -207h140l-56 -311h-311z" />
<glyph unicode="&#x2019;" horiz-adv-x="497" d="M141 915q162 57 189 207h-140l56 312h311l-39 -213q-31 -183 -104.5 -277t-229.5 -145z" />
<glyph unicode="&#x201a;" horiz-adv-x="499" d="M-57 -207q161 57 188 207h-139l55 311h311l-39 -213q-31 -183 -104.5 -277t-228.5 -145z" />
<glyph unicode="&#x201c;" horiz-adv-x="972" d="M131 793l39 213q31 183 104.5 276.5t229.5 144.5l43 -116q-162 -57 -189 -207h140l-56 -311h-311zM616 793l39 213q31 183 104.5 276.5t229.5 144.5l43 -116q-161 -57 -188 -207h139l-55 -311h-312z" />
<glyph unicode="&#x201d;" horiz-adv-x="976" d="M141 915q162 57 189 207h-140l56 312h311l-39 -213q-31 -183 -104.5 -277t-229.5 -145zM627 915q161 57 188 207h-139l55 312h311l-38 -213q-31 -183 -104.5 -277t-229.5 -145z" />
<glyph unicode="&#x201e;" horiz-adv-x="974" d="M-57 -207q161 57 188 207h-139l55 311h311l-39 -213q-31 -183 -104.5 -277t-228.5 -145zM428 -207q161 57 188 207h-139l55 311h312l-39 -213q-31 -183 -104.5 -277t-229.5 -145z" />
<glyph unicode="&#x2022;" horiz-adv-x="1134" d="M240 510q0 150 110.5 256t253.5 106q119 0 197 -79.5t78 -198.5q0 -149 -112.5 -255t-256.5 -106q-119 0 -194.5 79.5t-75.5 197.5z" />
<glyph unicode="&#x2026;" horiz-adv-x="1599" d="M-8 0l55 311h311l-55 -311h-311zM551 0l55 311h312l-56 -311h-311zM1112 0l55 311h312l-56 -311h-311z" />
<glyph unicode="&#x202f;" horiz-adv-x="370" />
<glyph unicode="&#x2039;" horiz-adv-x="768" d="M63 555l469 547l187 -154l-367 -409l252 -400l-207 -139z" />
<glyph unicode="&#x203a;" horiz-adv-x="768" d="M29 156l368 413l-256 396l207 137l336 -547l-469 -555z" />
<glyph unicode="&#x205f;" horiz-adv-x="463" />
<glyph unicode="&#x20ac;" horiz-adv-x="1292" d="M8 354l31 160h154q0 66 12 127h-146l29 162h166q79 173 241.5 275t374.5 102q131 0 238 -48t174 -133l-184 -163q-39 45 -99.5 73.5t-130.5 28.5q-190 0 -301 -152h301l-26 -145h-342q-17 -58 -17 -127h336l-26 -143h-287q60 -154 246 -154q137 0 249 107l158 -174 q-183 -175 -442 -175q-189 0 -326 103t-180 276h-203z" />
<glyph unicode="&#x2122;" horiz-adv-x="1777" d="M186 1266l31 168h701l-31 -168h-248l-102 -590h-203l104 590h-252zM895 676l133 758h180l162 -271l248 271h211l-135 -758h-201l82 461l-238 -256l-157 260l-82 -465h-203z" />
<glyph unicode="&#xe000;" horiz-adv-x="1095" d="M0 0v1096h1096v-1096h-1096z" />
</font>
</defs>
</svg>
